# xmcd
# Track frame offsets:
# 150
# 10390
# 22414
# 34862
# 46809
# 61075
# 76182
# 87567
# 100415
# 111144
# 121652
# 134139
# 145242
# 162260
#
# Disc length: 2347 seconds
# Revision: 0
# Processed by: cddbd v1.5.2PL0 Copyright (c) Steve Scherf et al.
# Submitted via: VisiTrax 2.10.0.248 - For more info visit www.synapsa.com
#
DISCID=bd09290e
DTITLE=Rose Maddox with Vern Williams Bans - Beautiful Bouquet
DYEAR=1983
DGENRE=
TTITLE0=We Are Climbing Jacobs Ladder
TTITLE1=Life's Evening Sun
TTITLE2=Church In The Wildwood
TTITLE3=When God Dips His Love In My Heart
TTITLE4=I Can't Feel At Home
TTITLE5=Farther Along
TTITLE6=I'll Fly Away
TTITLE7=In The Sweet By and By
TTITLE8=Kneel At The Cross
TTITLE9=Turn Your Radio On
TTITLE10=Beautiful Bouquet
TTITLE11=Take me In The Lifeboat
TTITLE12=If We Never Meet Again
TTITLE13=Swing Low Sweet Chariot
EXTD=Copyright 1983 and 2006
EXTT0=
EXTT1=
EXTT2=
EXTT3=
EXTT4=
EXTT5=
EXTT6=
EXTT7=
EXTT8=
EXTT9=
EXTT10=
EXTT11=
EXTT12=
EXTT13=
PLAYORDER=
